<svg width="58" height="58" viewBox="0 0 58 58" fill="none" xmlns="http://www.w3.org/2000/svg">
    <circle r="28.8" transform="matrix(-1 0 0 1 28.8001 28.8)" fill="#BDBEC0"/>
    <path d="M25.6859 18.0082C25.5165 18.0304 25.3555 18.0973 25.2182 18.2024L13.9091 26.8279C13.6521 27.0228 13.5001 27.3333 13.5001 27.6634C13.5001 27.9936 13.6521 28.304 13.9091 28.499L25.2182 37.1244C25.417 37.2765 25.6632 37.3468 25.9091 37.3212C26.155 37.296 26.3831 37.1768 26.5492 36.9872C26.7153 36.7973 26.8077 36.5504 26.8084 36.2941V32.8548C29.0583 32.8769 36.7964 33.3209 42.4521 38.4504C42.6735 38.6473 42.9667 38.7342 43.2547 38.6877C43.5429 38.6415 43.7971 38.4671 43.9505 38.2098C44.1041 37.9527 44.1415 37.6389 44.0531 37.3506C41.2587 28.4202 32.8599 24.4673 26.8086 22.7521V19.0432C26.8109 18.7448 26.6889 18.4599 26.4738 18.2615C26.2587 18.0632 25.9715 17.9709 25.6859 18.0082Z"
          fill="white"/>
</svg>

