<svg width="104" height="104" viewBox="0 0 104 104" fill="none" xmlns="http://www.w3.org/2000/svg">
<circle opacity="0.4" cx="52" cy="52" r="52" fill="#3566B0"/>
<circle opacity="0.6" cx="52" cy="52" r="40.8" fill="#3566B0"/>
<circle cx="52" cy="52" r="28.8" fill="#3566B0"/>
<path d="M55.1141 41.2082C55.2835 41.2304 55.4445 41.2973 55.5819 41.4025L66.8909 50.0279C67.148 50.2228 67.3 50.5333 67.3 50.8634C67.3 51.1936 67.148 51.504 66.8909 51.699L55.5819 60.3244C55.3831 60.4765 55.1369 60.5468 54.8909 60.5213C54.645 60.496 54.4169 60.3769 54.2508 60.1872C54.0847 59.9973 53.9924 59.7504 53.9917 59.4941V56.0548C51.7418 56.0769 44.0036 56.5209 38.3479 61.6505C38.1266 61.8473 37.8333 61.9342 37.5454 61.8878C37.2572 61.8415 37.0029 61.6671 36.8495 61.4098C36.6959 61.1528 36.6586 60.8389 36.747 60.5506C39.5414 51.6203 47.9402 47.6674 53.9914 45.9521V42.2433C53.9891 41.9448 54.1112 41.6599 54.3262 41.4616C54.5413 41.2632 54.8285 41.1709 55.1141 41.2082Z" fill="white"/>
</svg>

