<svg width="332" height="332" viewBox="0 0 332 332" fill="none" xmlns="http://www.w3.org/2000/svg">
    <circle opacity="0.2" cx="166" cy="166" r="166" fill="#3566B0"/>
    <circle opacity="0.4" cx="166" cy="166" r="145" fill="#3566B0"/>
    <circle opacity="0.6" cx="166" cy="166" r="123" fill="#3566B0"/>
    <circle opacity="0.8" cx="166" cy="166" r="100" fill="#3566B0"/>
    <circle cx="166" cy="166" r="82" fill="#3566B0"/>
    <path d="M123.016 180V154.08H127.72V164.928H133V154.08H137.736V180H133V168.288H127.72V180H123.016ZM144.998 180.288C144.166 180.288 143.451 180.075 142.854 179.648C142.257 179.2 141.798 178.645 141.478 177.984C141.158 177.301 140.998 176.597 140.998 175.872C140.998 174.72 141.211 173.749 141.638 172.96C142.065 172.171 142.63 171.509 143.334 170.976C144.038 170.443 144.838 169.984 145.734 169.6C146.63 169.195 147.537 168.832 148.454 168.512V166.912C148.454 166.379 148.411 165.931 148.326 165.568C148.262 165.205 148.123 164.928 147.91 164.736C147.718 164.544 147.409 164.448 146.982 164.448C146.619 164.448 146.321 164.533 146.086 164.704C145.873 164.875 145.713 165.12 145.606 165.44C145.521 165.739 145.467 166.091 145.446 166.496L145.382 167.616L141.254 167.456C141.318 165.323 141.841 163.755 142.822 162.752C143.825 161.728 145.339 161.216 147.366 161.216C149.222 161.216 150.566 161.728 151.398 162.752C152.251 163.776 152.678 165.163 152.678 166.912V175.456C152.678 176.139 152.689 176.757 152.71 177.312C152.753 177.867 152.795 178.368 152.838 178.816C152.902 179.264 152.955 179.659 152.998 180H149.094C149.03 179.573 148.945 179.093 148.838 178.56C148.753 178.005 148.689 177.6 148.646 177.344C148.433 178.091 148.027 178.773 147.43 179.392C146.833 179.989 146.022 180.288 144.998 180.288ZM146.598 177.056C146.875 177.056 147.131 176.992 147.366 176.864C147.622 176.715 147.846 176.544 148.038 176.352C148.23 176.16 148.369 175.989 148.454 175.84V170.688C147.985 170.965 147.537 171.243 147.11 171.52C146.705 171.797 146.342 172.107 146.022 172.448C145.723 172.768 145.489 173.12 145.318 173.504C145.169 173.888 145.094 174.336 145.094 174.848C145.094 175.531 145.222 176.075 145.478 176.48C145.755 176.864 146.129 177.056 146.598 177.056ZM163.083 180V172.608C162.741 172.629 162.389 172.661 162.027 172.704C161.685 172.725 161.344 172.736 161.003 172.736C159.744 172.736 158.699 172.587 157.867 172.288C157.035 171.968 156.416 171.467 156.011 170.784C155.627 170.101 155.435 169.216 155.435 168.128V161.504H159.755V167.968C159.755 168.629 159.893 169.141 160.171 169.504C160.469 169.845 161.056 170.027 161.931 170.048C162.123 170.048 162.304 170.037 162.475 170.016C162.667 169.995 162.869 169.973 163.083 169.952V161.504H167.435V180H163.083ZM174.373 180.288C173.541 180.288 172.826 180.075 172.229 179.648C171.632 179.2 171.173 178.645 170.853 177.984C170.533 177.301 170.373 176.597 170.373 175.872C170.373 174.72 170.586 173.749 171.013 172.96C171.44 172.171 172.005 171.509 172.709 170.976C173.413 170.443 174.213 169.984 175.109 169.6C176.005 169.195 176.912 168.832 177.829 168.512V166.912C177.829 166.379 177.786 165.931 177.701 165.568C177.637 165.205 177.498 164.928 177.285 164.736C177.093 164.544 176.784 164.448 176.357 164.448C175.994 164.448 175.696 164.533 175.461 164.704C175.248 164.875 175.088 165.12 174.981 165.44C174.896 165.739 174.842 166.091 174.821 166.496L174.757 167.616L170.629 167.456C170.693 165.323 171.216 163.755 172.197 162.752C173.2 161.728 174.714 161.216 176.741 161.216C178.597 161.216 179.941 161.728 180.773 162.752C181.626 163.776 182.053 165.163 182.053 166.912V175.456C182.053 176.139 182.064 176.757 182.085 177.312C182.128 177.867 182.17 178.368 182.213 178.816C182.277 179.264 182.33 179.659 182.373 180H178.469C178.405 179.573 178.32 179.093 178.213 178.56C178.128 178.005 178.064 177.6 178.021 177.344C177.808 178.091 177.402 178.773 176.805 179.392C176.208 179.989 175.397 180.288 174.373 180.288ZM175.973 177.056C176.25 177.056 176.506 176.992 176.741 176.864C176.997 176.715 177.221 176.544 177.413 176.352C177.605 176.16 177.744 175.989 177.829 175.84V170.688C177.36 170.965 176.912 171.243 176.485 171.52C176.08 171.797 175.717 172.107 175.397 172.448C175.098 172.768 174.864 173.12 174.693 173.504C174.544 173.888 174.469 174.336 174.469 174.848C174.469 175.531 174.597 176.075 174.853 176.48C175.13 176.864 175.504 177.056 175.973 177.056ZM187.434 180V164.544H184.042V161.504H195.178V164.544H191.754V180H187.434ZM197.289 180V161.504H201.641V169.024C201.684 169.024 201.726 169.024 201.769 169.024C201.812 169.024 201.854 169.024 201.897 169.024C201.94 169.024 201.972 169.024 201.993 169.024C203.273 169.045 204.372 169.141 205.289 169.312C206.228 169.461 206.996 169.739 207.593 170.144C208.212 170.549 208.67 171.104 208.969 171.808C209.268 172.491 209.417 173.376 209.417 174.464C209.417 175.467 209.278 176.32 209.001 177.024C208.745 177.728 208.308 178.304 207.689 178.752C207.092 179.179 206.302 179.499 205.321 179.712C204.361 179.904 203.198 180 201.833 180H197.289ZM201.641 177.504H201.801C202.74 177.504 203.476 177.419 204.009 177.248C204.542 177.056 204.916 176.747 205.129 176.32C205.364 175.872 205.481 175.264 205.481 174.496C205.481 173.771 205.374 173.205 205.161 172.8C204.948 172.373 204.574 172.064 204.041 171.872C203.529 171.68 202.814 171.584 201.897 171.584C201.876 171.584 201.833 171.584 201.769 171.584C201.726 171.584 201.684 171.584 201.641 171.584V177.504Z"
          fill="white"/>
</svg>

